<svg width="48" height="48" viewBox="0 0 48 48" fill="none" xmlns="http://www.w3.org/2000/svg">
<rect width="48" height="48" rx="14" fill="#F3DADA"/>
<path d="M24 13C23.7348 13 23.4804 13.1054 23.2929 13.2929C23.1054 13.4804 23 13.7348 23 14V24C23 24.5523 23.4477 25 24 25H34C34.5523 25 35 24.5523 35 24C35 22.5555 34.7155 21.1251 34.1627 19.7905C33.6099 18.4559 32.7996 17.2433 31.7782 16.2218C30.7567 15.2004 29.5441 14.3901 28.2095 13.8373C26.8749 13.2845 25.4445 13 24 13Z" fill="#D7B7B7"/>
<path d="M21 16.5122C21 16.1876 20.8424 15.8832 20.5774 15.6957C20.3123 15.5083 19.9728 15.4612 19.6667 15.5694C15.7841 16.9417 13 20.6445 13 25.0001C13 30.5229 17.4771 35.0001 23 35.0001C27.3556 35.0001 31.0584 32.2159 32.4307 28.3333C32.5389 28.0273 32.4918 27.6877 32.3044 27.4227C32.1169 27.1576 31.8125 27.0001 31.4879 27.0001H23C21.8954 27.0001 21 26.1046 21 25.0001V16.5122Z" fill="#D7B7B7"/>
</svg>
