<svg width="48" height="48" viewBox="0 0 48 48" fill="none" xmlns="http://www.w3.org/2000/svg">
<rect width="48" height="48" rx="14" fill="#D3D6F1"/>
<g clip-path="url(#clip0_429_2658)">
<path d="M34.7826 33.5375H14.4348V13.2452C14.4348 12.5729 13.8897 12.0278 13.2174 12.0278C12.545 12.0278 12 12.5729 12 13.2452V34.7549C12 35.4273 12.545 35.9723 13.2174 35.9723H34.7826C35.455 35.9723 36 35.4273 36 34.7549C36 34.0826 35.455 33.5375 34.7826 33.5375Z" fill="#A6A5E1"/>
<path d="M17.2556 28.3446C17.5852 28.3446 17.9136 28.2116 18.1537 27.9495L21.5446 24.2471L27.6099 26.911C28.1317 27.1401 28.7428 26.9766 29.0803 26.5174L32.8012 21.4556L33.1138 23.6345C33.2009 24.2414 33.7215 24.6793 34.3173 24.6792C34.3749 24.6792 34.4332 24.6751 34.4917 24.6667C35.1572 24.5712 35.6193 23.9543 35.5239 23.2888L34.7847 18.135C34.6892 17.4694 34.0721 17.0075 33.4068 17.1028L28.253 17.842C27.5875 17.9374 27.1253 18.5543 27.2208 19.2198C27.3163 19.8854 27.9333 20.3476 28.5987 20.2521L30.9076 19.9209L27.6962 24.2896L21.7253 21.6672C21.248 21.4576 20.6902 21.5751 20.3381 21.9595L16.3582 26.3049C15.9041 26.8007 15.9379 27.5708 16.4337 28.0249C16.6674 28.239 16.962 28.3446 17.2556 28.3446Z" fill="#A6A5E1"/>
</g>
<defs>
<clipPath id="clip0_429_2658">
<rect width="24" height="24" fill="white" transform="translate(12 12)"/>
</clipPath>
</defs>
</svg>
