<svg width="64" height="64" viewBox="0 0 64 64" fill="none" xmlns="http://www.w3.org/2000/svg">
<rect width="64" height="64" rx="21" fill="#D8F8F8"/>
<path d="M32.0002 26.1666V30.5416M32.0002 26.1666C33.611 26.1666 34.9168 24.8608 34.9168 23.2499C34.9168 21.6391 33.611 20.3333 32.0002 20.3333C30.3893 20.3333 29.0835 21.6391 29.0835 23.2499C29.0835 24.8608 30.3893 26.1666 32.0002 26.1666ZM32.0002 30.5416C30.3893 30.5416 29.0835 31.8474 29.0835 33.4583C29.0835 35.0691 30.3893 36.3749 32.0002 36.3749C33.611 36.3749 34.9168 35.0691 34.9168 33.4583C34.9168 31.8474 33.611 30.5416 32.0002 30.5416ZM26.1667 30.9063L29.0835 32.7291M37.8335 30.9063L34.9168 32.7291M26.896 38.5624L29.8127 35.6458M37.1043 38.5624L34.1877 35.6458M26.1668 29.0833C26.1668 30.6941 24.861 31.9999 23.2502 31.9999C21.6393 31.9999 20.3335 30.6941 20.3335 29.0833C20.3335 27.4724 21.6393 26.1666 23.2502 26.1666C24.861 26.1666 26.1668 27.4724 26.1668 29.0833ZM43.6668 29.0833C43.6668 30.6941 42.361 31.9999 40.7502 31.9999C39.1393 31.9999 37.8335 30.6941 37.8335 29.0833C37.8335 27.4724 39.1393 26.1666 40.7502 26.1666C42.361 26.1666 43.6668 27.4724 43.6668 29.0833ZM42.2085 40.7499C42.2085 42.3608 40.9027 43.6666 39.2918 43.6666C37.681 43.6666 36.3752 42.3608 36.3752 40.7499C36.3752 39.1391 37.681 37.8333 39.2918 37.8333C40.9027 37.8333 42.2085 39.1391 42.2085 40.7499ZM27.6252 40.7499C27.6252 42.3608 26.3193 43.6666 24.7085 43.6666C23.0977 43.6666 21.7918 42.3608 21.7918 40.7499C21.7918 39.1391 23.0977 37.8333 24.7085 37.8333C26.3193 37.8333 27.6252 39.1391 27.6252 40.7499Z" stroke="#69C6C6" stroke-width="2" stroke-linecap="round" stroke-linejoin="round"/>
</svg>
