<svg width="64" height="64" viewBox="0 0 64 64" fill="none" xmlns="http://www.w3.org/2000/svg">
<rect width="64" height="64" rx="21" fill="#E4E6FF"/>
<path d="M43 25.4444V28.1333C43 29.8889 42 31 40.42 31H37V23.2333C37 22 37.91 21 39.02 21C40.11 21.0111 41.11 21.5 41.83 22.3C42.55 23.1111 43 24.2222 43 25.4444Z" stroke="#B1B4D9" stroke-width="2" stroke-miterlimit="10" stroke-linecap="round" stroke-linejoin="round"/>
<path d="M21 26.5873V42.2316C21 43.1591 21.9987 43.6843 22.7 43.1256L24.5169 41.6953C24.9419 41.36 25.5369 41.4047 25.9194 41.807L27.6831 43.6731C28.0975 44.109 28.7775 44.109 29.1919 43.6731L30.9769 41.7958C31.3488 41.4047 31.9437 41.36 32.3581 41.6953L34.175 43.1256C34.8762 43.6731 35.875 43.1479 35.875 42.2316V23.2349C35.875 22.0057 36.8312 21 38 21H26.3125H25.25C22.0625 21 21 23.0002 21 25.4698V26.5873Z" stroke="#B1B4D9" stroke-width="2" stroke-miterlimit="10" stroke-linecap="round" stroke-linejoin="round"/>
</svg>
